<svg width="63" height="59" viewBox="0 0 63 59" fill="none" xmlns="http://www.w3.org/2000/svg">
<path d="M46.55 1.14568C45.6539 0.405121 44.5276 0 43.365 0C42.2025 0 41.0762 0.405121 40.18 1.14568L33.29 6.91568V13.4357L43.34 5.00568L53.14 13.2057V6.65568L46.55 1.14568Z" fill="#1170FF"/>
<path d="M22.26 29.2957C21.3638 30.0363 20.2376 30.4414 19.075 30.4414C17.9124 30.4414 16.7862 30.0363 15.89 29.2957L9 23.5257V17.0057L19.05 25.4357L28.85 17.2357V23.7857L22.26 29.2957Z" fill="#1170FF"/>
<path d="M53.18 19.2957V17.3657H33.55V53.0057H28.55V34.6257H8.9V53.0057H0V58.0057H62.08V53.0057H53.18V19.2957ZM13.9 53.0057V39.6257H23.53V53.0057H13.9ZM38.55 53.0057V22.3657H48.18V53.0057H38.55Z" fill="#1170FF"/>
</svg>
