<svg width="65" height="54" viewBox="0 0 65 54" fill="none" xmlns="http://www.w3.org/2000/svg">
<g clip-path="url(#clip0_609_22)">
<path d="M23.15 0C21.1149 0.00564673 19.1418 0.700842 17.5527 1.97215C15.9636 3.24345 14.8522 5.0158 14.4 7L10.4 24.47L5.59 45.13C5.3833 46.0046 4.88808 46.7842 4.18418 47.3429C3.48028 47.9017 2.60871 48.2071 1.71 48.21H0V53.21H1.71C3.74839 53.2171 5.72785 52.5266 7.31957 51.2532C8.91129 49.9798 10.0195 48.2002 10.46 46.21L13.01 35.21L16.19 21.42L16.72 19.13L19.27 8.13C19.4669 7.24612 19.958 6.45522 20.6628 5.88665C21.3676 5.31808 22.2445 5.00549 23.15 5H49.39L50.55 0H23.15Z" fill="#1170FF"/>
<path d="M34.6895 53.2101H41.5395C43.5746 53.2044 45.5477 52.5092 47.1368 51.2379C48.7259 49.9666 49.8373 48.1942 50.2895 46.2101L54.4595 28.1401L59.0995 8.09005C59.3051 7.21024 59.8024 6.42593 60.5106 5.86485C61.2188 5.30376 62.096 4.99895 62.9995 5.00005H64.7995V5.4e-05H62.9995C60.9611 -0.00703204 58.9817 0.683465 57.39 1.95684C55.7982 3.23022 54.6901 5.00983 54.2495 7.00005L51.6795 18.0001L49.1095 29.1401L47.9995 34.0801L45.4195 45.1301C45.2128 46.0047 44.7176 46.7842 44.0137 47.343C43.3098 47.9017 42.4382 48.2072 41.5395 48.2101H15.1695L14.0195 53.2101H34.6895Z" fill="#1170FF"/>
<path d="M29.3598 27.6101L24.8398 23.09L21.2998 26.63L29.3598 34.68L43.6998 20.34L40.1698 16.8L29.3598 27.6101Z" fill="#1170FF"/>
</g>
<defs>
<clipPath id="clip0_609_22">
<rect width="64.78" height="53.21" fill="white"/>
</clipPath>
</defs>
</svg>
