<svg width="61" height="61" viewBox="0 0 61 61" fill="none" xmlns="http://www.w3.org/2000/svg">
<g clip-path="url(#clip0_609_12)">
<path d="M4.99959 30.4101C4.99322 25.6302 6.33675 20.9458 8.87552 16.8959C11.4143 12.846 15.0451 9.59538 19.35 7.51816C23.6549 5.44095 28.4588 4.62161 33.2089 5.15446C37.9589 5.6873 42.4619 7.55067 46.1996 10.5301H39.1996V15.5301H49.4796C49.9038 15.5254 50.3251 15.458 50.7296 15.3301C51.7098 15.0612 52.575 14.4785 53.1927 13.6713C53.8103 12.864 54.1464 11.8765 54.1496 10.8601V0.53007H49.1496V6.53007C43.8705 2.38493 37.3672 0.104749 30.6555 0.0456135C23.9437 -0.013522 17.4013 2.15172 12.05 6.2032C6.69866 10.2547 2.83969 15.9643 1.07573 22.4404C-0.688239 28.9164 -0.257884 35.7944 2.29959 42.0001H7.79959C5.95659 38.4148 4.99662 34.4413 4.99959 30.4101Z" fill="#1170FF"/>
<path d="M55.8102 30.4101C55.8112 35.1865 54.4648 39.8663 51.9258 43.912C49.3867 47.9577 45.758 51.2051 41.4563 53.2812C37.1547 55.3574 32.3547 56.178 27.6077 55.6489C22.8607 55.1198 18.3592 53.2624 14.6202 50.2901H21.6202V45.2901H11.3302C10.9065 45.2915 10.4853 45.3555 10.0802 45.4801C9.09256 45.7527 8.22226 46.3433 7.60403 47.1603C6.98579 47.9774 6.65409 48.9755 6.66024 50.0001V60.2801H11.6602V54.2801C16.9383 58.42 23.4381 60.6967 30.1458 60.755C36.8535 60.8133 43.3919 58.65 48.7411 54.6024C54.0903 50.5548 57.9495 44.8506 59.7167 38.3796C61.4838 31.9086 61.0596 25.0347 58.5102 18.8301H53.0002C54.8448 22.4116 55.8081 26.3815 55.8102 30.4101Z" fill="#1170FF"/>
<path d="M32.9102 16.99H27.9102V27.91H16.9902V32.91H27.9102V43.82H32.9102V32.91H43.8202V27.91H32.9102V16.99Z" fill="#1170FF"/>
</g>
<defs>
<clipPath id="clip0_609_12">
<rect width="60.81" height="60.81" fill="white"/>
</clipPath>
</defs>
</svg>
