<svg width="74" height="49" viewBox="0 0 74 49" fill="none" xmlns="http://www.w3.org/2000/svg">
<path d="M26.8501 23.7601L27.7401 28.2101H41.0001C47.3501 28.2101 48.3001 23.8301 48.3001 21.2101H43.6401C43.6401 23.2101 43.1701 23.5801 40.9701 23.5801H34.7001C35.6694 21.9212 36.0034 19.9668 35.6401 18.0801H41.3501V13.4601H34.7101C34.7101 13.2101 34.6101 12.9701 34.5701 12.7201C34.3868 11.9633 34.3687 11.1758 34.5171 10.4113C34.6655 9.64688 34.9769 8.92338 35.4301 8.29009C35.8073 7.87178 36.271 7.54059 36.7891 7.31955C37.3071 7.09851 37.8671 6.99291 38.4301 7.01009C39.2065 7.05974 39.9532 7.32717 40.5847 7.78172C41.2161 8.23628 41.7066 8.85955 42.0001 9.5801L46.1301 7.4901C45.4679 6.00876 44.402 4.74382 43.0544 3.84009C41.7068 2.93637 40.1319 2.43039 38.5101 2.38009C37.2741 2.3617 36.049 2.61245 34.9197 3.11495C33.7903 3.61745 32.7839 4.35967 31.9701 5.29009C30.7401 6.72009 29.4001 9.29009 30.0501 13.4401H27.7401V18.0701H31.0001C31.4601 20.8001 31.0001 22.0301 26.8501 23.7601Z" fill="#1170FF"/>
<path d="M59.58 14.64V0H55V19.26H62.6L40 42.13C39.5935 42.5418 39.1093 42.8688 38.5754 43.0919C38.0415 43.3151 37.4686 43.43 36.89 43.43C36.3114 43.43 35.7385 43.3151 35.2046 43.0919C34.6707 42.8688 34.1865 42.5418 33.78 42.13L11.09 19.26H18.74V0H14.12V14.64H0L30.45 45.38C31.287 46.2266 32.2837 46.8987 33.3823 47.3574C34.4808 47.8161 35.6595 48.0523 36.85 48.0523C38.0405 48.0523 39.2192 47.8161 40.3177 47.3574C41.4163 46.8987 42.413 46.2266 43.25 45.38L73.7 14.64H59.58Z" fill="#1170FF"/>
</svg>
