<svg width="60" height="60" viewBox="0 0 60 60" fill="none" xmlns="http://www.w3.org/2000/svg">
<g clip-path="url(#clip0_609_16)">
<path d="M46.59 29.62C45.8429 27.9757 44.6322 26.5852 43.1063 25.6189C41.5805 24.6526 39.8059 24.1525 38 24.18H26.27C25.4431 24.2001 24.6276 23.9841 23.9192 23.5573C23.2107 23.1304 22.6386 22.5104 22.27 21.77L16.43 8.25H11L17.64 23.74C18.3895 25.393 19.6077 26.7896 21.1436 27.7567C22.6795 28.7237 24.4654 29.2186 26.28 29.18H38C38.8271 29.1586 39.6431 29.3742 40.3518 29.8011C41.0605 30.2281 41.6323 30.8488 42 31.59L48 45.67H53.44L46.59 29.62Z" fill="#1170FF"/>
<path d="M59.19 54.19H5V0H0V59.19H59.19V54.19Z" fill="#1170FF"/>
</g>
<defs>
<clipPath id="clip0_609_16">
<rect width="59.19" height="59.19" fill="white"/>
</clipPath>
</defs>
</svg>
