<svg width="63" height="63" viewBox="0 0 63 63" fill="none" xmlns="http://www.w3.org/2000/svg">
<g clip-path="url(#clip0_609_3)">
<path d="M27.64 55.2801C34.1046 55.2838 40.364 53.0109 45.32 48.8601L59.21 62.7501L62.74 59.2101L48.86 45.3201C52.8671 40.4829 55.1057 34.4244 55.2067 28.144C55.3076 21.8635 53.2648 15.7362 49.4152 10.7728C45.5657 5.80939 40.1393 2.30638 34.0312 0.841602C27.923 -0.623178 21.4981 0.0377691 15.8161 2.71542C10.1342 5.39307 5.53458 9.92747 2.77612 15.5706C0.017663 21.2138 -0.734901 27.6287 0.642567 33.7571C2.02003 39.8855 5.44525 45.3613 10.3532 49.2813C15.2612 53.2013 21.3587 55.3314 27.64 55.3201V55.2801ZM27.64 5.00006C31.6925 4.99416 35.6721 6.07755 39.1623 8.13686C42.6526 10.1962 45.5252 13.1557 47.4797 16.7058C49.4341 20.2558 50.3985 24.2659 50.2718 28.3164C50.1452 32.3669 48.9323 36.309 46.76 39.7301C45.8232 37.8485 44.3814 36.2647 42.596 35.1556C40.8106 34.0466 38.7518 33.4561 36.65 33.4501C36.0058 33.2995 35.4262 32.9481 34.9948 32.4466C34.5634 31.9451 34.3026 31.3195 34.25 30.6601C34.1787 29.5678 34.5376 28.4911 35.25 27.6601C36.809 25.6448 37.5868 23.1338 37.44 20.5901C37.4822 19.2602 37.2567 17.9354 36.7769 16.6943C36.2972 15.4533 35.5729 14.3214 34.6471 13.3657C33.7213 12.4101 32.6129 11.6502 31.3877 11.1313C30.1625 10.6124 28.8455 10.345 27.515 10.345C26.1844 10.345 24.8675 10.6124 23.6423 11.1313C22.4171 11.6502 21.3087 12.4101 20.3829 13.3657C19.4571 14.3214 18.7328 15.4533 18.253 16.6943C17.7732 17.9354 17.5478 19.2602 17.59 20.5901C17.4431 23.1338 18.221 25.6448 19.78 27.6601C20.4924 28.4911 20.8513 29.5678 20.78 30.6601C20.7274 31.3195 20.4665 31.9451 20.0351 32.4466C19.6038 32.9481 19.0241 33.2995 18.38 33.4501C16.313 33.459 14.2881 34.0342 12.5251 35.1132C10.7621 36.1921 9.32846 37.7336 8.37998 39.5701C6.24984 36.1405 5.07598 32.2035 4.98011 28.1674C4.88424 24.1313 5.86987 20.143 7.83478 16.6161C9.79969 13.0893 12.6723 10.1523 16.1548 8.10982C19.6373 6.06729 23.6027 4.99359 27.64 5.00006ZM12.16 44.1401C12.316 42.5822 13.0448 41.1378 14.205 40.0866C15.3652 39.0353 16.8744 38.4522 18.44 38.4501C22.24 38.4501 25.84 34.6701 25.84 30.6601C25.9017 28.5112 25.1923 26.4112 23.84 24.7401C22.8932 23.5671 22.4411 22.0711 22.58 20.5701C22.55 19.9046 22.6552 19.24 22.8891 18.6164C23.1231 17.9927 23.481 17.4229 23.9413 16.9414C24.4016 16.4599 24.9547 16.0767 25.5672 15.8149C26.1797 15.5531 26.8389 15.4181 27.505 15.4181C28.1711 15.4181 28.8303 15.5531 29.4428 15.8149C30.0553 16.0767 30.6084 16.4599 31.0686 16.9414C31.5289 17.4229 31.8868 17.9927 32.1208 18.6164C32.3548 19.24 32.46 19.9046 32.43 20.5701C32.5688 22.0711 32.1168 23.5671 31.17 24.7401C29.8177 26.4112 29.1082 28.5112 29.17 30.6601C29.17 34.6601 32.77 38.4501 36.57 38.4501C38.1632 38.4536 39.6961 39.0596 40.8609 40.1466C42.0258 41.2335 42.7364 42.7209 42.85 44.3101C38.6508 48.1792 33.1413 50.3129 27.4315 50.2813C21.7217 50.2498 16.2361 48.0553 12.08 44.1401H12.16Z" fill="#1170FF"/>
</g>
<defs>
<clipPath id="clip0_609_3">
<rect width="62.74" height="62.75" fill="white"/>
</clipPath>
</defs>
</svg>
